<mxfile host="Electron" agent="Mozilla/5.0 (Windows NT 10.0; Win64; x64) AppleWebKit/537.36 (KHTML, like Gecko) draw.io/24.7.17 Chrome/128.0.6613.36 Electron/32.0.1 Safari/537.36" version="24.7.17">
  <diagram name="Page-1" id="SkuC76hFCjA3VyX_A-ML">
    <mxGraphModel dx="780" dy="544" grid="1" gridSize="10" guides="1" tooltips="1" connect="1" arrows="1" fold="1" page="1" pageScale="1" pageWidth="827" pageHeight="1169" math="0" shadow="0">
      <root>
        <mxCell id="0" />
        <mxCell id="1" parent="0" />
        <mxCell id="MDLXURxubLseBGRayLQ--1" value="Shrimple" style="ellipse;whiteSpace=wrap;html=1;aspect=fixed;" parent="1" vertex="1">
          <mxGeometry x="374" y="320" width="80" height="80" as="geometry" />
        </mxCell>
        <mxCell id="MDLXURxubLseBGRayLQ--2" value="Database" style="rounded=0;whiteSpace=wrap;html=1;" parent="1" vertex="1">
          <mxGeometry x="650" y="525" width="120" height="60" as="geometry" />
        </mxCell>
        <mxCell id="MDLXURxubLseBGRayLQ--3" value="ML Engineer" style="rounded=0;whiteSpace=wrap;html=1;" parent="1" vertex="1">
          <mxGeometry x="80" y="525" width="120" height="60" as="geometry" />
        </mxCell>
        <mxCell id="MDLXURxubLseBGRayLQ--4" value="3rd Party" style="rounded=0;whiteSpace=wrap;html=1;" parent="1" vertex="1">
          <mxGeometry x="650" y="190" width="120" height="60" as="geometry" />
        </mxCell>
        <mxCell id="SWHhalUvAAx42S4cQrhX-3" value="" style="endArrow=classic;html=1;rounded=0;entryX=0.958;entryY=0.738;entryDx=0;entryDy=0;entryPerimeter=0;exitX=0;exitY=0;exitDx=0;exitDy=0;" edge="1" parent="1" source="MDLXURxubLseBGRayLQ--2" target="MDLXURxubLseBGRayLQ--1">
          <mxGeometry width="50" height="50" relative="1" as="geometry">
            <mxPoint x="380" y="310" as="sourcePoint" />
            <mxPoint x="500" y="420" as="targetPoint" />
          </mxGeometry>
        </mxCell>
        <mxCell id="SWHhalUvAAx42S4cQrhX-5" value="Past Data" style="edgeLabel;html=1;align=center;verticalAlign=middle;resizable=0;points=[];rotation=25;" vertex="1" connectable="0" parent="SWHhalUvAAx42S4cQrhX-3">
          <mxGeometry x="0.0644" y="-3" relative="1" as="geometry">
            <mxPoint x="14" as="offset" />
          </mxGeometry>
        </mxCell>
        <mxCell id="SWHhalUvAAx42S4cQrhX-4" value="" style="endArrow=classic;html=1;rounded=0;exitX=0.5;exitY=1;exitDx=0;exitDy=0;entryX=0;entryY=0.75;entryDx=0;entryDy=0;" edge="1" parent="1" source="MDLXURxubLseBGRayLQ--1" target="MDLXURxubLseBGRayLQ--2">
          <mxGeometry width="50" height="50" relative="1" as="geometry">
            <mxPoint x="380" y="310" as="sourcePoint" />
            <mxPoint x="430" y="260" as="targetPoint" />
          </mxGeometry>
        </mxCell>
        <mxCell id="SWHhalUvAAx42S4cQrhX-6" value="User Data" style="edgeLabel;html=1;align=center;verticalAlign=middle;resizable=0;points=[];rotation=34;" vertex="1" connectable="0" parent="SWHhalUvAAx42S4cQrhX-4">
          <mxGeometry x="0.028" y="-4" relative="1" as="geometry">
            <mxPoint x="-3" y="10" as="offset" />
          </mxGeometry>
        </mxCell>
        <mxCell id="SWHhalUvAAx42S4cQrhX-7" value="" style="endArrow=classic;html=1;rounded=0;exitX=1;exitY=0;exitDx=0;exitDy=0;entryX=0.242;entryY=0.971;entryDx=0;entryDy=0;entryPerimeter=0;" edge="1" parent="1" source="MDLXURxubLseBGRayLQ--3" target="MDLXURxubLseBGRayLQ--1">
          <mxGeometry width="50" height="50" relative="1" as="geometry">
            <mxPoint x="380" y="310" as="sourcePoint" />
            <mxPoint x="430" y="260" as="targetPoint" />
          </mxGeometry>
        </mxCell>
        <mxCell id="SWHhalUvAAx42S4cQrhX-8" value="Training Data" style="edgeLabel;html=1;align=center;verticalAlign=middle;resizable=0;points=[];rotation=327;" vertex="1" connectable="0" parent="SWHhalUvAAx42S4cQrhX-7">
          <mxGeometry x="0.0146" relative="1" as="geometry">
            <mxPoint x="32" y="-11" as="offset" />
          </mxGeometry>
        </mxCell>
        <mxCell id="SWHhalUvAAx42S4cQrhX-9" value="" style="endArrow=classic;html=1;rounded=0;entryX=0;entryY=1;entryDx=0;entryDy=0;exitX=1.008;exitY=0.388;exitDx=0;exitDy=0;exitPerimeter=0;" edge="1" parent="1" source="MDLXURxubLseBGRayLQ--1" target="MDLXURxubLseBGRayLQ--4">
          <mxGeometry width="50" height="50" relative="1" as="geometry">
            <mxPoint x="380" y="310" as="sourcePoint" />
            <mxPoint x="430" y="260" as="targetPoint" />
          </mxGeometry>
        </mxCell>
        <mxCell id="SWHhalUvAAx42S4cQrhX-10" value="Final&amp;nbsp;&lt;div&gt;Prediction&lt;/div&gt;" style="edgeLabel;html=1;align=center;verticalAlign=middle;resizable=0;points=[];rotation=335;" vertex="1" connectable="0" parent="SWHhalUvAAx42S4cQrhX-9">
          <mxGeometry x="-0.1926" y="1" relative="1" as="geometry">
            <mxPoint x="27" y="11" as="offset" />
          </mxGeometry>
        </mxCell>
        <mxCell id="SWHhalUvAAx42S4cQrhX-11" value="" style="endArrow=classic;html=1;rounded=0;exitX=0;exitY=0.25;exitDx=0;exitDy=0;entryX=0.5;entryY=0;entryDx=0;entryDy=0;" edge="1" parent="1" source="MDLXURxubLseBGRayLQ--4" target="MDLXURxubLseBGRayLQ--1">
          <mxGeometry width="50" height="50" relative="1" as="geometry">
            <mxPoint x="380" y="210" as="sourcePoint" />
            <mxPoint x="430" y="160" as="targetPoint" />
          </mxGeometry>
        </mxCell>
        <mxCell id="SWHhalUvAAx42S4cQrhX-12" value="Location" style="edgeLabel;html=1;align=center;verticalAlign=middle;resizable=0;points=[];rotation=335;" vertex="1" connectable="0" parent="SWHhalUvAAx42S4cQrhX-11">
          <mxGeometry x="0.007" y="1" relative="1" as="geometry">
            <mxPoint x="-12" y="-4" as="offset" />
          </mxGeometry>
        </mxCell>
        <mxCell id="SWHhalUvAAx42S4cQrhX-13" value="Environmental Monitoring Agencies" style="rounded=0;whiteSpace=wrap;html=1;" vertex="1" parent="1">
          <mxGeometry x="90" y="190" width="120" height="60" as="geometry" />
        </mxCell>
        <mxCell id="SWHhalUvAAx42S4cQrhX-15" value="" style="endArrow=classic;html=1;rounded=0;entryX=0.122;entryY=-0.006;entryDx=0;entryDy=0;entryPerimeter=0;" edge="1" parent="1" source="MDLXURxubLseBGRayLQ--1" target="MDLXURxubLseBGRayLQ--3">
          <mxGeometry width="50" height="50" relative="1" as="geometry">
            <mxPoint x="380" y="310" as="sourcePoint" />
            <mxPoint x="430" y="260" as="targetPoint" />
          </mxGeometry>
        </mxCell>
        <mxCell id="SWHhalUvAAx42S4cQrhX-16" value="Report on Conditions" style="edgeLabel;html=1;align=center;verticalAlign=middle;resizable=0;points=[];rotation=330;" vertex="1" connectable="0" parent="SWHhalUvAAx42S4cQrhX-15">
          <mxGeometry x="0.2072" y="-2" relative="1" as="geometry">
            <mxPoint x="14" y="-25" as="offset" />
          </mxGeometry>
        </mxCell>
        <mxCell id="SWHhalUvAAx42S4cQrhX-17" value="" style="endArrow=classic;html=1;rounded=0;exitX=1;exitY=0.5;exitDx=0;exitDy=0;" edge="1" parent="1" source="SWHhalUvAAx42S4cQrhX-13" target="MDLXURxubLseBGRayLQ--1">
          <mxGeometry width="50" height="50" relative="1" as="geometry">
            <mxPoint x="380" y="310" as="sourcePoint" />
            <mxPoint x="430" y="260" as="targetPoint" />
          </mxGeometry>
        </mxCell>
        <mxCell id="SWHhalUvAAx42S4cQrhX-18" value="Reviewing the accuracy of predictions&lt;div&gt;&lt;br&gt;&lt;/div&gt;" style="edgeLabel;html=1;align=center;verticalAlign=middle;resizable=0;points=[];rotation=32;" vertex="1" connectable="0" parent="SWHhalUvAAx42S4cQrhX-17">
          <mxGeometry x="-0.0991" y="-3" relative="1" as="geometry">
            <mxPoint x="25" y="-15" as="offset" />
          </mxGeometry>
        </mxCell>
      </root>
    </mxGraphModel>
  </diagram>
</mxfile>
